<?xml version="1.0" encoding="UTF-8"?>
<svg xmlns="http://www.w3.org/2000/svg" xmlns:xlink="http://www.w3.org/1999/xlink" width="2836" height="2836" viewBox="0 0 2836 2836">
<path fill-rule="evenodd" fill="rgb(100%, 100%, 100%)" fill-opacity="1" d="M 0.882812 0.46875 L 2835.53125 0.46875 L 2835.53125 2835.117188 L 0.882812 2835.117188 L 0.882812 0.46875 "/>
<path fill-rule="nonzero" fill="rgb(0%, 0%, 0%)" fill-opacity="1" d="M 2164.730469 1301.640625 C 2159.769531 1269.589844 2181.730469 1239.570312 2213.789062 1234.609375 C 2245.851562 1229.648438 2275.859375 1251.621094 2280.820312 1283.679688 C 2287.089844 1323.839844 2290.46875 1363.890625 2291.101562 1403.570312 C 2294.53125 1616.828125 2219.058594 1819.589844 2088.308594 1977.394531 C 1957.421875 2135.359375 1770.988281 2248.605469 1552.660156 2282.679688 C 1512.589844 2288.933594 1471.46875 2292.507812 1429.441406 2293.183594 L 1428.519531 2293.414062 L 1428.511719 2293.191406 C 1187.109375 2296.824219 966.996094 2202.394531 806.207031 2046.699219 C 645.328125 1890.914062 543.878906 1673.660156 539.988281 1431.859375 L 539.757812 1430.941406 L 539.980469 1430.929688 C 536.347656 1189.519531 630.777344 969.410156 786.472656 808.621094 C 942.253906 647.75 1159.511719 546.300781 1401.308594 542.410156 L 1402.230469 542.171875 L 1402.238281 542.390625 C 1510.109375 540.769531 1613.511719 558.609375 1709.070312 592.660156 C 1808.921875 628.238281 1900.511719 681.441406 1980.019531 748.558594 C 2004.820312 769.550781 2007.921875 806.679688 1986.929688 831.480469 C 1965.941406 856.289062 1928.808594 859.378906 1904.011719 838.390625 C 1835.289062 780.378906 1756.160156 734.421875 1669.910156 703.679688 C 1586.421875 673.929688 1496.511719 658.378906 1403.160156 659.878906 L 1402.238281 660.109375 L 1402.230469 659.898438 C 1193.390625 663.511719 1005.609375 751.378906 870.777344 890.621094 C 735.859375 1029.949219 654.09375 1220.761719 657.460938 1430.011719 L 657.691406 1430.929688 L 657.480469 1430.941406 C 661.089844 1639.78125 748.964844 1827.558594 888.207031 1962.394531 C 1027.539062 2097.3125 1218.339844 2179.078125 1427.589844 2175.710938 L 1428.511719 2175.480469 L 1428.519531 2175.695312 C 1464.761719 2175.070312 1500.199219 2171.972656 1534.699219 2166.589844 C 1723.050781 2137.195312 1884.171875 2039.148438 1997.550781 1902.304688 C 2111.070312 1765.300781 2176.601562 1589.710938 2173.628906 1405.410156 C 2173.078125 1371.070312 2170.148438 1336.410156 2164.730469 1301.640625 Z M 2098.871094 855.398438 L 2177.5 855.398438 L 2177.5 974.558594 L 2296.648438 974.558594 L 2296.648438 1070.378906 L 2177.5 1070.378906 L 2177.5 1189.539062 L 2081.671875 1189.539062 L 2081.671875 1070.378906 L 1962.511719 1070.378906 L 1962.511719 974.558594 L 2081.671875 974.558594 L 2081.671875 855.398438 Z M 1215.570312 1779.839844 L 1075.261719 1779.839844 L 1075.261719 1248.980469 C 1024.050781 1297.109375 963.625 1332.789062 893.984375 1355.828125 L 893.984375 1227.808594 C 930.683594 1215.859375 970.453125 1193.160156 1013.300781 1159.539062 C 1056.308594 1126.078125 1085.671875 1086.988281 1101.71875 1042.441406 L 1215.570312 1042.441406 Z M 1498.621094 1383.308594 C 1462.429688 1367.949219 1435.980469 1346.960938 1419.589844 1319.988281 C 1403.03125 1293.191406 1394.839844 1263.660156 1394.839844 1231.738281 C 1394.839844 1176.949219 1413.949219 1131.710938 1452.019531 1096.039062 C 1490.089844 1060.359375 1544.359375 1042.441406 1614.519531 1042.441406 C 1684.160156 1042.441406 1738.101562 1060.359375 1776.511719 1096.039062 C 1814.910156 1131.710938 1834.199219 1176.949219 1834.199219 1231.738281 C 1834.199219 1265.710938 1825.328125 1295.921875 1807.578125 1322.550781 C 1789.988281 1349.011719 1765.070312 1369.320312 1732.980469 1383.308594 C 1773.78125 1399.699219 1804.671875 1423.601562 1826.011719 1455.011719 C 1847.179688 1486.589844 1857.761719 1522.769531 1857.761719 1563.910156 C 1857.761719 1631.851562 1836.25 1686.980469 1793.070312 1729.480469 C 1750.050781 1771.980469 1692.699219 1793.148438 1621.011719 1793.148438 C 1554.441406 1793.148438 1499.128906 1775.570312 1454.75 1740.410156 C 1402.519531 1699.101562 1376.398438 1642.089844 1376.398438 1569.878906 C 1376.398438 1530.109375 1386.300781 1493.578125 1405.929688 1460.300781 C 1425.558594 1427.011719 1456.460938 1401.410156 1498.621094 1383.308594 Z M 1527.980469 1241.980469 C 1527.980469 1269.96875 1535.828125 1291.988281 1551.53125 1307.699219 C 1567.410156 1323.398438 1588.398438 1331.25 1614.519531 1331.25 C 1641.148438 1331.25 1662.308594 1323.230469 1678.191406 1307.359375 C 1694.058594 1291.480469 1702.089844 1269.460938 1702.089844 1241.46875 C 1702.089844 1215.011719 1694.230469 1193.851562 1678.53125 1177.96875 C 1662.660156 1162.101562 1641.828125 1154.070312 1616.058594 1154.070312 C 1589.089844 1154.070312 1567.75 1162.101562 1551.878906 1178.140625 C 1536 1194.191406 1527.980469 1215.519531 1527.980469 1241.980469 Z M 1514.660156 1556.398438 C 1514.660156 1595.488281 1524.558594 1625.871094 1544.359375 1647.71875 C 1564.171875 1669.570312 1588.75 1680.488281 1618.28125 1680.488281 C 1647.289062 1680.488281 1671.191406 1669.910156 1690.140625 1648.910156 C 1709.089844 1627.921875 1718.46875 1597.539062 1718.46875 1557.941406 C 1718.46875 1523.28125 1708.910156 1495.460938 1689.628906 1474.46875 C 1670.339844 1453.46875 1645.929688 1442.890625 1616.398438 1442.890625 C 1582.089844 1442.890625 1556.648438 1454.839844 1539.761719 1478.730469 C 1523.03125 1502.628906 1514.660156 1528.398438 1514.660156 1556.398438 "/>
</svg>
